<?xml version="1.0" encoding="utf-8"?>
<!-- Generator: Adobe Illustrator 24.0.2, SVG Export Plug-In . SVG Version: 6.00 Build 0)  -->
<svg version="1.1" id="Capa_1" xmlns="http://www.w3.org/2000/svg" xmlns:xlink="http://www.w3.org/1999/xlink" x="0px" y="0px"
	 viewBox="0 0 534 130" style="enable-background:new 0 0 534 130;" xml:space="preserve">
<style type="text/css">
	.st0{fill-rule:evenodd;clip-rule:evenodd;fill:#001B4E;}
	.st1{fill-rule:evenodd;clip-rule:evenodd;fill:#BE0811;}
</style>
<g>
	<path class="st0" d="M73.16,111.39c14.01-14.01,28.01-28.05,42.02-42.06c2.32-2.39,2.02-4.34,0.24-6.04
		C100.92,48.8,87.48,35.53,72.99,21.03c-1.04-1.23-3.05-2.61-4.77-0.34C57.66,35.24,56.09,39.48,56.3,48.43
		c0.43,9.98,20.09,17.08,20.62,34.63c0.53,12.48-4.58,18.25-9.73,25.49C65.1,110.98,70.32,115.01,73.16,111.39"/>
	<path class="st1" d="M44.22,20.82C30.21,34.83,15.74,49.45,1.73,63.46c-2.32,2.39-2.02,4.34-0.24,6.04
		c14.49,14.49,27.47,27.27,41.96,41.76c0.8,1.29,3.58,2.76,5.71-0.13c7.1-9.1,11.93-13.76,11.27-25.9
		c0.02-11.49-19.91-17.95-20.45-35.5c-0.53-12.48,5.52-18.41,10.66-25.65C52.6,21.66,46.73,17.32,44.22,20.82"/>
	<path class="st0" d="M520.62,57.12l-4.96-9.57l-4.86,9.57H520.62z M534,67.31h-7.91l-3.14-5.86h-14.38l-2.97,5.86h-7.71
		l14.02-25.77h7.68L534,67.31z M468.84,67.31V41.54h7.07l14.73,17.21V41.54h6.75v25.77h-7.3l-14.5-16.81v16.81H468.84z M458.1,41.54
		h7.26v25.77h-7.26V41.54z M425.56,67.31V41.54h7.27v10.14h14.23V41.54h7.26v25.77h-7.26V56.04h-14.23v11.27H425.56z M415.79,57.84
		l7.04,1.6c-1.08,2.81-2.87,4.9-5.39,6.27c-2.51,1.36-5.7,2.05-9.56,2.05c-4.77,0-8.7-1.17-11.78-3.5
		c-3.07-2.34-4.62-5.54-4.62-9.59c0-4.29,1.55-7.62,4.64-10c3.09-2.37,7.16-3.56,12.2-3.56c4.4,0,7.98,0.93,10.72,2.8
		c1.64,1.1,2.87,2.68,3.69,4.75l-7.2,1.23c-0.42-1.34-1.31-2.39-2.66-3.17c-1.35-0.77-2.99-1.16-4.92-1.16
		c-2.66,0-4.83,0.68-6.49,2.06c-1.66,1.37-2.49,3.59-2.49,6.66c0,3.26,0.81,5.58,2.46,6.96c1.63,1.39,3.76,2.08,6.38,2.08
		c1.93,0,3.59-0.44,4.98-1.32C414.18,61.11,415.18,59.72,415.79,57.84 M359.96,57.84v-4.34h15.66v10.27
		c-1.52,1.06-3.73,1.99-6.62,2.79c-2.89,0.8-5.82,1.2-8.77,1.2c-3.76,0-7.05-0.56-9.85-1.69c-2.8-1.13-4.9-2.75-6.31-4.85
		c-1.41-2.11-2.11-4.39-2.11-6.87c0-2.68,0.79-5.07,2.35-7.16c1.57-2.08,3.87-3.68,6.9-4.79c2.3-0.86,5.18-1.29,8.61-1.29
		c4.46,0,7.96,0.67,10.46,2.01c2.51,1.35,4.13,3.2,4.85,5.57l-7.21,0.97c-0.51-1.27-1.47-2.27-2.86-3c-1.4-0.73-3.14-1.1-5.24-1.1
		c-3.18,0-5.7,0.72-7.57,2.16c-1.88,1.45-2.81,3.58-2.81,6.42c0,3.05,0.95,5.35,2.85,6.88c1.89,1.53,4.38,2.29,7.46,2.29
		c1.52,0,3.05-0.22,4.58-0.64c1.52-0.43,2.84-0.95,3.94-1.55v-3.27H359.96z M310.51,67.31V41.54h7.07l14.73,17.21V41.54h6.75v25.77
		h-7.3l-14.5-16.81v16.81H310.51z M299.77,41.54h7.26v25.77h-7.26V41.54z M277.26,45.9v7.31h3.97c2.87,0,4.78-0.13,5.75-0.4
		c0.96-0.27,1.72-0.69,2.27-1.27c0.54-0.58,0.82-1.24,0.82-2c0-0.94-0.38-1.71-1.16-2.32c-0.76-0.61-1.74-0.99-2.92-1.14
		c-0.87-0.12-2.61-0.17-5.23-0.17H277.26z M269.99,67.31V41.54h11.65c4.42,0,7.3,0.13,8.64,0.39c2.06,0.38,3.8,1.22,5.19,2.52
		c1.39,1.3,2.09,2.97,2.09,5.02c0,1.58-0.4,2.92-1.21,3.99c-0.8,1.08-1.82,1.93-3.06,2.54c-1.23,0.61-2.49,1.02-3.76,1.22
		c-1.73,0.25-4.25,0.37-7.54,0.37h-4.73v9.72H269.99z M247.25,45.9v7.31h3.97c2.87,0,4.78-0.13,5.75-0.4
		c0.96-0.27,1.72-0.69,2.27-1.27c0.54-0.58,0.82-1.24,0.82-2c0-0.94-0.39-1.71-1.16-2.32c-0.76-0.61-1.74-0.99-2.92-1.14
		c-0.87-0.12-2.61-0.17-5.23-0.17H247.25z M239.99,67.31V41.54h11.65c4.42,0,7.3,0.13,8.64,0.39c2.06,0.38,3.8,1.22,5.19,2.52
		c1.39,1.3,2.09,2.97,2.09,5.02c0,1.58-0.4,2.92-1.21,3.99c-0.8,1.08-1.82,1.93-3.06,2.54c-1.23,0.61-2.49,1.02-3.76,1.22
		c-1.73,0.25-4.25,0.37-7.54,0.37h-4.73v9.72H239.99z M210.41,54.41c0,2.92,0.95,5.13,2.82,6.64c1.88,1.51,4.27,2.26,7.17,2.26
		c2.89,0,5.27-0.74,7.13-2.24c1.85-1.5,2.78-3.73,2.78-6.72c0-2.95-0.9-5.15-2.71-6.61c-1.81-1.45-4.21-2.18-7.21-2.18
		c-3,0-5.41,0.74-7.25,2.21C211.34,49.23,210.41,51.44,210.41,54.41 M202.93,54.59c0-2.63,0.54-4.83,1.64-6.61
		c0.82-1.31,1.94-2.49,3.35-3.53c1.42-1.04,2.97-1.81,4.65-2.32c2.24-0.68,4.83-1.02,7.76-1.02c5.3,0,9.54,1.18,12.73,3.54
		c3.18,2.35,4.77,5.63,4.77,9.82c0,4.16-1.58,7.42-4.74,9.77c-3.16,2.35-7.38,3.52-12.66,3.52c-5.35,0-9.61-1.17-12.77-3.5
		C204.51,61.91,202.93,58.68,202.93,54.59 M171.64,67.31V41.54h7.27v10.14h14.23V41.54h7.26v25.77h-7.26V56.04h-14.23v11.27H171.64z
		 M139.78,58.93l7.07-0.5c0.42,1.7,1.28,2.95,2.59,3.75c1.3,0.79,3.05,1.19,5.26,1.19c2.34,0,4.1-0.35,5.29-1.07
		c1.19-0.71,1.79-1.54,1.79-2.49c0-0.61-0.25-1.13-0.75-1.55c-0.49-0.43-1.37-0.8-2.61-1.12c-0.85-0.22-2.79-0.59-5.81-1.13
		c-3.9-0.69-6.63-1.54-8.19-2.55c-2.21-1.42-3.32-3.14-3.32-5.18c0-1.31,0.52-2.54,1.56-3.68c1.04-1.14,2.54-2.01,4.49-2.61
		c1.96-0.59,4.31-0.9,7.08-0.9c4.52,0,7.92,0.71,10.2,2.12c2.28,1.42,3.48,3.31,3.59,5.68l-7.26,0.23c-0.31-1.33-0.98-2.28-2-2.86
		c-1.02-0.58-2.56-0.87-4.6-0.87c-2.11,0-3.77,0.31-4.96,0.93c-0.77,0.4-1.16,0.93-1.16,1.6c0,0.61,0.36,1.13,1.08,1.57
		c0.91,0.55,3.14,1.13,6.68,1.72c3.54,0.6,6.15,1.22,7.84,1.85c1.69,0.64,3.02,1.51,3.98,2.62c0.96,1.11,1.43,2.48,1.43,4.1
		c0,1.48-0.57,2.86-1.72,4.15c-1.15,1.29-2.76,2.25-4.86,2.87c-2.09,0.63-4.71,0.94-7.83,0.94c-4.55,0-8.04-0.75-10.48-2.26
		C141.7,64.01,140.25,61.81,139.78,58.93"/>
	<path class="st1" d="M434.2,86.96l3.46-0.24c0.2,0.82,0.63,1.42,1.27,1.8c0.64,0.38,1.49,0.57,2.57,0.57
		c1.14,0,2.01-0.17,2.59-0.51c0.58-0.34,0.87-0.74,0.87-1.19c0-0.29-0.12-0.54-0.37-0.75c-0.24-0.21-0.67-0.39-1.28-0.54
		c-0.41-0.1-1.36-0.28-2.84-0.54c-1.91-0.33-3.24-0.74-4.01-1.23c-1.08-0.68-1.62-1.51-1.62-2.49c0-0.63,0.25-1.22,0.76-1.77
		c0.51-0.55,1.24-0.97,2.2-1.26c0.96-0.29,2.11-0.43,3.46-0.43c2.21,0,3.87,0.34,4.99,1.02c1.11,0.68,1.7,1.59,1.76,2.73l-3.55,0.11
		c-0.15-0.64-0.48-1.1-0.98-1.37c-0.5-0.28-1.25-0.42-2.25-0.42c-1.03,0-1.84,0.15-2.43,0.45c-0.38,0.19-0.57,0.45-0.57,0.77
		c0,0.29,0.18,0.54,0.53,0.75c0.45,0.27,1.54,0.54,3.27,0.83c1.73,0.29,3.01,0.59,3.84,0.89c0.83,0.31,1.48,0.73,1.95,1.26
		c0.47,0.53,0.7,1.19,0.7,1.97c0,0.71-0.28,1.38-0.84,1.99c-0.56,0.62-1.35,1.08-2.38,1.38c-1.02,0.3-2.3,0.45-3.83,0.45
		c-2.23,0-3.93-0.36-5.13-1.09C435.14,89.4,434.43,88.35,434.2,86.96 M412.16,84.79c0,1.4,0.46,2.47,1.38,3.19
		c0.92,0.72,2.09,1.08,3.51,1.08c1.41,0,2.58-0.36,3.49-1.08c0.91-0.72,1.36-1.79,1.36-3.23c0-1.42-0.44-2.48-1.32-3.18
		c-0.88-0.7-2.06-1.05-3.52-1.05c-1.47,0-2.65,0.35-3.54,1.06C412.61,82.3,412.16,83.36,412.16,84.79 M408.5,84.88
		c0-1.26,0.27-2.32,0.8-3.18c0.4-0.63,0.95-1.2,1.64-1.7c0.69-0.5,1.45-0.87,2.27-1.11c1.1-0.33,2.36-0.49,3.8-0.49
		c2.59,0,4.67,0.57,6.22,1.7c1.56,1.13,2.34,2.71,2.34,4.72c0,2-0.77,3.57-2.32,4.7c-1.55,1.13-3.61,1.69-6.19,1.69
		c-2.62,0-4.7-0.56-6.24-1.68C409.27,88.39,408.5,86.85,408.5,84.88 M388.25,80.7v8.2h2.65c0.99,0,1.71-0.04,2.15-0.12
		c0.57-0.1,1.05-0.27,1.43-0.51c0.38-0.24,0.69-0.64,0.93-1.2c0.24-0.55,0.36-1.31,0.36-2.27c0-0.96-0.12-1.69-0.36-2.2
		c-0.24-0.51-0.58-0.91-1.01-1.2c-0.43-0.29-0.98-0.48-1.65-0.58c-0.5-0.08-1.47-0.12-2.92-0.12H388.25z M384.69,78.61h6.5
		c1.46,0,2.58,0.08,3.35,0.24c1.03,0.21,1.92,0.6,2.65,1.14c0.74,0.54,1.3,1.21,1.68,2c0.38,0.79,0.57,1.77,0.57,2.93
		c0,1.02-0.18,1.9-0.54,2.64c-0.44,0.9-1.07,1.63-1.88,2.18c-0.62,0.42-1.45,0.75-2.5,0.99c-0.78,0.18-1.83,0.26-3.15,0.26h-6.68
		V78.61z M369.52,86.09l-2.43-4.6l-2.38,4.6H369.52z M376.07,90.99h-3.87l-1.54-2.81h-7.04l-1.45,2.81h-3.77l6.86-12.39h3.76
		L376.07,90.99z M344.2,90.99V80.7h-5.22v-2.1h13.99v2.1h-5.21v10.29H344.2z M319.3,83.84h2.63c1.71,0,2.77-0.05,3.2-0.15
		c0.42-0.1,0.76-0.28,1-0.53c0.24-0.25,0.36-0.56,0.36-0.93c0-0.42-0.16-0.75-0.48-1.01c-0.32-0.26-0.76-0.42-1.34-0.49
		c-0.29-0.02-1.15-0.04-2.59-0.04h-2.77V83.84z M315.74,90.99V78.61h7.48c1.88,0,3.25,0.11,4.1,0.33c0.85,0.22,1.54,0.62,2.05,1.19
		c0.51,0.57,0.77,1.22,0.77,1.95c0,0.93-0.39,1.7-1.16,2.3c-0.77,0.6-1.94,0.99-3.48,1.14c0.77,0.32,1.41,0.66,1.91,1.04
		c0.5,0.38,1.17,1.05,2.02,2.01l2.15,2.42h-4.25l-2.57-2.7c-0.91-0.96-1.54-1.57-1.87-1.82c-0.34-0.25-0.69-0.42-1.07-0.52
		c-0.38-0.09-0.97-0.14-1.79-0.14h-0.72v5.17H315.74z M292.79,84.79c0,1.4,0.46,2.47,1.38,3.19c0.92,0.72,2.09,1.08,3.51,1.08
		c1.41,0,2.58-0.36,3.49-1.08c0.91-0.72,1.36-1.79,1.36-3.23c0-1.42-0.44-2.48-1.32-3.18c-0.89-0.7-2.06-1.05-3.52-1.05
		c-1.47,0-2.65,0.35-3.54,1.06C293.24,82.3,292.79,83.36,292.79,84.79 M289.13,84.88c0-1.26,0.27-2.32,0.8-3.18
		c0.4-0.63,0.95-1.2,1.64-1.7c0.69-0.5,1.45-0.87,2.28-1.11c1.1-0.33,2.36-0.49,3.79-0.49c2.59,0,4.67,0.57,6.23,1.7
		c1.56,1.13,2.34,2.71,2.34,4.72c0,2-0.77,3.57-2.32,4.7c-1.55,1.13-3.61,1.69-6.19,1.69c-2.62,0-4.7-0.56-6.25-1.68
		C289.9,88.39,289.13,86.85,289.13,84.88 M270.25,80.7v3.51h1.94c1.4,0,2.34-0.06,2.81-0.19c0.47-0.13,0.84-0.33,1.11-0.61
		c0.27-0.28,0.4-0.6,0.4-0.96c0-0.45-0.19-0.82-0.57-1.12c-0.37-0.29-0.85-0.48-1.43-0.55c-0.43-0.06-1.28-0.08-2.56-0.08H270.25z
		 M266.69,90.99V78.61h5.7c2.16,0,3.57,0.06,4.22,0.19c1.01,0.18,1.86,0.59,2.54,1.21c0.68,0.62,1.02,1.43,1.02,2.41
		c0,0.76-0.2,1.4-0.59,1.92c-0.39,0.52-0.89,0.93-1.5,1.22c-0.6,0.29-1.22,0.49-1.84,0.59c-0.85,0.12-2.08,0.18-3.69,0.18h-2.32
		v4.67H266.69z M239.41,90.99V78.61h5.32l3.19,8.45l3.15-8.45h5.33v12.39h-3.3v-9.75l-3.5,9.75h-3.42l-3.48-9.75v9.75H239.41z
		 M225.76,78.61h3.55v12.39h-3.55V78.61z"/>
</g>
</svg>
