<svg width="200" height="38" viewBox="0 0 200 38" fill="none" xmlns="http://www.w3.org/2000/svg">
<path fill-rule="evenodd" clip-rule="evenodd" d="M134.182 32.9945H134.289H136.472H136.579V33.0801V33.829V33.936H136.472H135.145V34.4496H136.472H136.579V34.5565V35.284V35.3696H136.472H135.145V36.2041H136.472H136.579V36.3111V37.06V37.167H136.472H134.289H134.182V37.06V33.0801V32.9945ZM129.689 32.9945H129.796H130.545H130.652V33.0801V37.06V37.167H130.545H129.796H129.689V37.06V33.0801V32.9945ZM126.672 24.8422C126.565 24.9278 126.415 24.9706 126.201 24.9706H125.987C125.538 24.9706 125.259 24.671 125.11 24.2431C124.96 23.8365 124.917 23.323 124.917 22.895V20.5841C124.917 18.8296 124.96 17.1392 125.003 15.4916L125.004 15.4307C125.047 13.8467 125.088 12.2826 125.088 10.6558C125.088 9.71434 125.131 8.83706 125.174 8.00257L125.177 7.94139C125.219 7.19257 125.259 6.46295 125.259 5.71306C125.259 5.02835 124.981 4.25805 124.746 3.61613C124.553 3.12399 124.404 2.71745 124.404 2.41788C124.404 2.13972 124.532 1.96854 124.853 1.96854C125.687 1.96854 126.094 3.14539 126.287 4.68599C126.329 4.94276 126.351 5.22092 126.372 5.49909C126.491 6.98209 126.475 8.65521 126.463 9.8369C126.46 10.1385 126.458 10.4082 126.458 10.6344V10.6558C126.458 12.2628 126.539 13.7681 126.623 15.3105L126.629 15.4274C126.714 17.0322 126.8 18.6798 126.8 20.413V24.3715C126.8 24.5854 126.757 24.7352 126.672 24.8422ZM124.767 33.936H124.66H124.639V34.5565H124.767C124.896 34.5565 124.981 34.5565 125.067 34.5351L125.067 34.5351C125.131 34.5137 125.195 34.4923 125.217 34.471L125.238 34.4496L125.259 34.4282C125.281 34.3854 125.302 34.3212 125.302 34.2356C125.302 34.2249 125.297 34.2088 125.292 34.1928C125.286 34.1767 125.281 34.1607 125.281 34.15V34.1286C125.281 34.1072 125.281 34.0858 125.259 34.0644L125.195 34.0002C125.185 33.9895 125.174 33.9842 125.163 33.9788C125.152 33.9735 125.142 33.9681 125.131 33.9574C125.11 33.9574 125.067 33.936 125.003 33.936H124.767ZM123.697 32.9945H123.804V33.0159H124.596H124.618C124.853 33.0159 125.045 33.0159 125.195 33.0373H125.259C125.388 33.0587 125.495 33.0801 125.58 33.1229C125.597 33.1311 125.61 33.1361 125.621 33.1405C125.64 33.1474 125.653 33.1525 125.666 33.1657C125.682 33.1739 125.696 33.1789 125.707 33.1833C125.725 33.1902 125.738 33.1953 125.752 33.2085C125.88 33.2941 125.987 33.4011 126.073 33.5509C126.073 33.5723 126.094 33.6151 126.115 33.6365C126.126 33.6472 126.131 33.6632 126.137 33.6792C126.142 33.6953 126.147 33.7113 126.158 33.722C126.222 33.8718 126.244 34.043 126.244 34.2356C126.244 34.364 126.244 34.4923 126.201 34.6207C126.18 34.7491 126.115 34.8561 126.051 34.9417C126.03 34.9845 126.008 35.0059 125.987 35.0273L125.923 35.0915C125.816 35.1771 125.709 35.2627 125.559 35.3268L126.436 36.9958L126.522 37.1456H126.351H125.516H125.452L125.431 37.1028L124.66 35.6478V37.06V37.167H124.553H123.804H123.697V37.06V33.0801V32.9945ZM117.856 32.9945H117.963H120.124H120.231V33.0801V33.829V33.936H120.124H118.819V34.4496H120.124H120.231V34.5565V35.284V35.3696H120.124H118.819V36.2041H120.124H120.231V36.3111V37.06V37.167H120.124H117.963H117.856V37.06V33.0801V32.9945ZM109.682 37.1884L109.704 37.06L110.431 33.0801L110.453 32.9945H110.538H111.287H111.351L111.373 33.0587L112.186 35.5408L113.02 33.0587L113.042 32.9945H113.106H113.833H113.919L113.94 33.0801L114.604 37.06L114.625 37.1884H114.497H113.769H113.684L113.662 37.1028L113.298 34.9845L112.571 37.1028L112.549 37.167H112.485H111.822H111.736L111.715 37.1028L111.009 34.9845L110.645 37.1028L110.624 37.1884H110.538H109.811H109.682ZM103.52 32.9945H103.627V33.0801H104.29H104.397V33.1657V35.7334C104.397 35.8404 104.397 35.926 104.419 36.0116C104.428 36.0397 104.433 36.0637 104.438 36.0854C104.444 36.1133 104.449 36.1373 104.461 36.1613C104.472 36.172 104.483 36.1881 104.493 36.2041C104.504 36.2202 104.515 36.2362 104.526 36.2469C104.547 36.2897 104.568 36.3111 104.611 36.3325C104.654 36.3539 104.697 36.3753 104.739 36.3753C104.782 36.3967 104.846 36.3967 104.889 36.3967C105.018 36.3967 105.103 36.3539 105.189 36.3111C105.232 36.2897 105.274 36.2469 105.296 36.2255C105.307 36.2041 105.317 36.1881 105.328 36.172C105.339 36.156 105.349 36.1399 105.36 36.1185V36.0757L105.381 36.033C105.403 35.9474 105.403 35.7976 105.403 35.6264V33.1443V33.0587H105.51H106.28H106.387V33.1443V35.5194V35.5408C106.387 35.7334 106.387 35.9046 106.366 36.033V36.0971C106.366 36.2041 106.344 36.2897 106.323 36.3539C106.323 36.3646 106.318 36.3753 106.312 36.386C106.307 36.3967 106.301 36.4074 106.301 36.4181L106.28 36.4823C106.216 36.6107 106.152 36.7177 106.045 36.8246C105.981 36.8888 105.916 36.953 105.831 37.0172C105.745 37.0814 105.66 37.1242 105.574 37.1669L105.574 37.167C105.467 37.2098 105.381 37.2312 105.274 37.2526C105.236 37.2526 105.193 37.2569 105.146 37.2617C105.088 37.2675 105.024 37.274 104.953 37.274C104.804 37.274 104.654 37.2526 104.526 37.2098C104.376 37.167 104.247 37.1028 104.14 37.0386C104.13 37.0279 104.114 37.0172 104.098 37.0065C104.082 36.9958 104.065 36.9851 104.055 36.9744C104.012 36.953 103.991 36.9316 103.969 36.9102C103.819 36.8033 103.712 36.6535 103.648 36.5037C103.638 36.4823 103.632 36.4662 103.627 36.4502C103.621 36.4342 103.616 36.4181 103.605 36.3967C103.605 36.3878 103.602 36.3753 103.597 36.3606C103.591 36.3399 103.584 36.3148 103.584 36.2897C103.541 36.0757 103.52 35.7976 103.52 35.4552V33.0801V32.9945ZM101.979 5.04975C101.979 4.81438 102.001 4.68599 102.108 4.57901C102.193 4.47202 102.343 4.45062 102.514 4.42922C102.977 4.42922 103.837 5.8107 104.383 6.68715C104.418 6.74266 104.451 6.79614 104.483 6.84712C104.552 6.97211 104.622 7.07908 104.679 7.16802C104.711 7.2161 104.738 7.25892 104.761 7.29646L104.782 7.31785V7.36065L104.611 8.66588V9.65016C104.611 9.88553 104.846 10.1423 105.146 10.3563C105.446 10.5702 105.788 10.72 106.002 10.72C106.472 10.72 106.988 10.6856 107.516 10.6504C107.709 10.6375 107.904 10.6245 108.099 10.613C109.19 10.5488 110.281 10.4846 111.116 10.5702H111.137C111.694 10.6344 112.699 10.7628 113.555 10.9982C114.454 11.2549 115.224 11.6187 115.224 12.1536V13.1379V13.2449H115.117H106.901C106.665 13.2449 106.494 13.4375 106.387 13.7584C106.28 14.0794 106.216 14.5287 106.237 15.0209C106.259 15.5344 106.323 16.0907 106.473 16.647C106.879 18.1877 107.821 19.7497 109.383 19.985C110.667 20.1776 112.507 20.4558 114.154 20.9051C115.823 21.3544 117.3 21.975 117.856 22.8309L117.877 22.8736V22.9164L117.749 23.5798L117.728 23.6653H117.642C116.187 23.644 114.518 23.4086 112.87 23.1732L112.87 23.1732C111.993 23.0448 111.116 22.9164 110.281 22.8309L110.196 22.8095C108.035 22.5955 107.157 22.3387 106.665 21.44C106.366 20.8821 106.216 20.1014 105.989 18.9251C105.972 18.8384 105.955 18.7495 105.938 18.6584C105.724 17.5671 105.274 16.2833 104.825 15.0209C104.504 14.1222 104.183 13.2021 103.948 12.389V12.3676C103.895 12.1838 103.77 11.8065 103.612 11.3298C103.513 11.0297 103.4 10.6903 103.284 10.3349C102.707 8.60169 101.979 6.41917 101.979 6.03402V5.04975ZM111.159 4.6218C112.485 4.6218 113.298 4.85717 114.197 5.13534C114.582 5.24232 114.967 5.37071 115.481 5.54188L115.588 5.56328L115.545 5.67027L114.946 7.44624L114.903 7.53182L114.818 7.51043L114.737 7.48907C114.418 7.40403 113.962 7.28276 113.47 7.12528L113.353 7.09006C112.242 6.7543 110.92 6.35498 110.217 6.35498H107.393C106.695 6.35498 106.332 6.55904 105.974 6.75988C105.948 6.77474 105.921 6.78958 105.895 6.80432C105.857 6.8249 105.819 6.84603 105.781 6.86736C105.582 6.97908 105.373 7.09621 105.103 7.16807L104.975 7.18947V7.06109V4.92136V4.83578L105.06 4.81438L106.537 4.6218H111.159ZM98.0208 32.9945H98.1277H100.096H100.203V33.0801V33.829V33.936H100.096H98.9836V34.4496H100.096H100.203V34.5565V35.284V35.3696H100.096H98.9836V37.06V37.167H98.8766H98.1277H98.0208V37.06V33.0801V32.9945ZM93.0352 33.936H92.9282V34.5565H93.0566C93.1636 34.5565 93.2706 34.5565 93.3348 34.5351C93.3989 34.5137 93.4417 34.4924 93.4845 34.471L93.5059 34.4496L93.5273 34.4282C93.5487 34.3854 93.5701 34.3212 93.5701 34.2356C93.5701 34.2249 93.5648 34.2088 93.5594 34.1928C93.5541 34.1767 93.5487 34.1607 93.5487 34.15V34.1286C93.5487 34.1072 93.5487 34.0858 93.5273 34.0644L93.4631 34.0002C93.4524 33.9895 93.4417 33.9842 93.431 33.9788C93.4203 33.9735 93.4096 33.9681 93.3989 33.9574C93.3911 33.9574 93.3804 33.9546 93.3669 33.9509C93.3434 33.9446 93.3113 33.936 93.2706 33.936H93.0352ZM91.9439 32.9945H92.0509V33.0159H92.864H92.8854C93.0994 33.0159 93.292 33.0159 93.4417 33.0373H93.5059C93.6343 33.0587 93.7413 33.0801 93.8269 33.1229C93.8376 33.1336 93.8536 33.139 93.8697 33.1443C93.8857 33.1497 93.9018 33.155 93.9125 33.1657C93.9288 33.1739 93.9421 33.1789 93.9534 33.1833C93.9716 33.1902 93.9848 33.1953 93.9981 33.2085C94.1264 33.2941 94.2334 33.4011 94.319 33.5509C94.3297 33.5616 94.3351 33.5776 94.3404 33.5937C94.3458 33.6097 94.3511 33.6258 94.3618 33.6365C94.3725 33.6472 94.3779 33.6632 94.3832 33.6793C94.3886 33.6953 94.3939 33.7114 94.4046 33.722C94.4688 33.8718 94.4902 34.043 94.4902 34.2356C94.4902 34.364 94.4902 34.4923 94.4474 34.6207C94.426 34.7491 94.3618 34.8561 94.2976 34.9417C94.2762 34.9845 94.2548 35.0059 94.2334 35.0273L94.1693 35.0915C94.0837 35.1771 93.9553 35.2627 93.8055 35.3268L94.6828 36.9958L94.7684 37.1456H94.5972H93.7627H93.6985L93.6771 37.1028L92.9068 35.6478V37.06V37.167H92.7998H92.0509H91.9439V37.06V33.0801V32.9945ZM90.3391 25.3129C88.4562 25.3129 86.8942 24.564 85.8243 23.5156C85.6104 23.3016 85.4178 23.0876 85.268 22.8522C85.0968 22.6169 84.947 22.4029 84.8187 22.1675L84.7759 22.0606L84.8829 22.0178L85.8457 21.6112L85.8885 21.5898L85.9313 21.6112C86.0383 21.6754 86.1881 21.7824 86.3593 21.9108C87.1296 22.4885 88.392 23.4086 89.0125 23.4086H90.3391C91.0881 23.4086 91.3876 22.9806 91.4732 22.4243C91.5554 21.8489 91.4008 21.1551 91.2747 20.5893L91.2592 20.52C91.088 19.7924 90.6173 18.9793 90.1252 18.3374C90.0824 18.284 90.0343 18.2252 89.9862 18.1664C89.938 18.1075 89.8898 18.0486 89.847 17.9951C89.7614 17.8881 89.6544 17.7811 89.5688 17.6955C89.4639 17.5906 89.342 17.4644 89.2069 17.3246C89.0388 17.1507 88.8504 16.9556 88.6488 16.754C87.4077 15.4274 85.7815 13.4803 85.7815 11.9611V11.7899C85.8029 10.8912 86.402 10.1423 87.2793 9.65016C88.1352 9.13662 89.2265 8.87985 90.1894 8.87985H91.0025C91.4851 8.87985 91.7065 9.03664 91.9495 9.20875C91.9758 9.22738 92.0024 9.24619 92.0295 9.265C92.0937 9.32919 92.1365 9.37199 92.2221 9.41478L92.2649 9.43618V9.50037V11.3191V11.5331L92.0937 11.4261C91.8598 11.2822 91.6411 11.0778 91.412 10.8637C91.3687 10.8232 91.3249 10.7823 91.2806 10.7414C91.2556 10.7186 91.2305 10.6956 91.2054 10.6726C90.7364 10.2433 90.2521 9.79993 89.8256 9.79993H89.5046C88.9697 9.79993 88.3706 10.1637 87.9213 10.6558C87.4505 11.148 87.1296 11.7899 87.1296 12.3248C87.1296 13.0658 88.0404 14.0444 89.1192 15.2035C89.1619 15.2494 89.2048 15.2954 89.2479 15.3418L89.3066 15.4051C90.9428 17.1685 92.9068 19.2851 92.9068 21.5898V22.5741C92.9068 23.1732 92.6286 23.8579 92.2221 24.3929C91.8156 24.9278 91.2806 25.3129 90.8313 25.3129H90.3391ZM86.616 34.4282L86.2309 35.4124H87.0012L86.616 34.4282ZM84.5619 37.167L84.6047 37.0386L86.1453 33.0587L86.1667 32.9945H86.2309H87.0012H87.0654L87.0868 33.0587L88.6274 37.0386L88.6702 37.167H88.5204H87.7287H87.6645L87.6431 37.1028L87.3649 36.3539H85.8885L85.589 37.1028L85.5676 37.167H85.5034H84.7117H84.5619ZM79.9829 33.936H79.8973V34.5779H80.0257H80.0471C80.1327 34.5565 80.1969 34.5565 80.261 34.5565H80.2824C80.3252 34.5351 80.3466 34.5351 80.368 34.5351H80.3894L80.4108 34.5137C80.4407 34.4988 80.4601 34.4735 80.4764 34.4523C80.4835 34.4431 80.4899 34.4346 80.4964 34.4282V34.4068L80.5178 34.3854C80.5392 34.3426 80.5392 34.2998 80.5392 34.257C80.5392 34.1928 80.5392 34.15 80.5178 34.1072L80.4964 34.0858C80.475 34.043 80.4536 34.0216 80.4108 34.0002C80.3984 33.9878 80.3715 33.9826 80.3386 33.9762C80.3148 33.9716 80.2879 33.9664 80.261 33.9574C80.1969 33.936 80.0899 33.936 79.9829 33.936ZM78.913 32.9945H79.02V33.0373H79.8759H79.8973C80.1113 33.0373 80.3038 33.0373 80.4536 33.0587H80.5178C80.6462 33.0801 80.7532 33.1015 80.8388 33.1443C80.9458 33.1871 81.0313 33.2299 81.1169 33.3155C81.2025 33.3797 81.2667 33.4653 81.3309 33.5723C81.3416 33.583 81.347 33.599 81.3523 33.6151C81.3577 33.6311 81.363 33.6472 81.3737 33.6579C81.3844 33.6686 81.3897 33.6846 81.3951 33.7006C81.4004 33.7167 81.4058 33.7327 81.4165 33.7434C81.4807 33.8932 81.5021 34.0644 81.5021 34.257V34.2784C81.5021 34.4282 81.4807 34.5565 81.4379 34.6849L81.4165 34.7277C81.3951 34.8347 81.3309 34.9203 81.2667 35.0059C81.2025 35.1129 81.0955 35.1985 80.9885 35.2626C80.8816 35.3482 80.7532 35.391 80.6248 35.4338H80.6034C80.5927 35.4338 80.5767 35.4392 80.5606 35.4445C80.5446 35.4499 80.5285 35.4552 80.5178 35.4552L80.4322 35.4766C80.3658 35.4766 80.2951 35.4808 80.2164 35.4855C80.1179 35.4914 80.0068 35.498 79.8759 35.498V37.06V37.167H79.7689H79.02H78.913V37.06V33.0801V32.9945ZM14.7427 26.0404C14.7427 26.4042 14.6571 26.8535 14.4859 27.1745C14.3148 27.5382 14.0366 27.795 13.6514 27.795H13.1593C11.2122 27.795 8.21654 26.1474 6.1624 24.6924C5.77725 24.4142 5.4135 24.1361 5.09254 23.8793C4.86418 23.6966 4.66831 23.5139 4.49724 23.3544C4.42787 23.2897 4.36258 23.2288 4.30085 23.1732C3.27378 22.1461 2.20392 20.9051 1.39082 19.4287C0.556328 17.9523 0 16.2405 0 14.2934C0 12.9239 1.47641 10.4632 2.73885 8.73007C2.97422 8.40911 3.20959 8.10955 3.42356 7.85278C3.44763 7.82389 3.47144 7.79527 3.49494 7.76701C3.68032 7.54413 3.84696 7.34379 3.97989 7.21087C4.6646 6.48336 5.73446 5.43489 6.9541 4.53621C8.17375 3.63753 9.56457 2.93142 10.8698 2.93142C11.4903 2.93142 11.9183 2.99561 12.282 3.14539C12.6458 3.29517 12.9453 3.50914 13.2663 3.78731L13.4161 3.91569L13.2235 3.95849C11.9825 4.25805 9.62876 5.60607 7.89558 6.71873C7.55323 6.9327 7.23227 7.14667 6.9541 7.33925C6.89067 7.38316 6.82836 7.42596 6.76766 7.46765C6.56218 7.60878 6.37526 7.73715 6.2266 7.85278C5.30652 8.53749 4.17246 9.41478 3.27378 10.4846C2.37509 11.5545 1.71178 12.8383 1.71178 14.2934C1.71178 15.9195 2.26811 17.3746 3.01701 18.6584C3.78731 19.9208 4.77158 21.0121 5.60608 21.868C6.76153 23.0448 7.7886 23.7723 9.07243 24.2003C10.3777 24.6282 11.9611 24.7566 14.3148 24.7566H14.3789L14.4003 24.8208C14.4153 24.8656 14.4406 24.9103 14.4618 24.9478C14.471 24.9641 14.4795 24.979 14.4859 24.992C14.6357 25.2273 14.7427 25.4413 14.7427 25.8693V26.0404ZM32.6094 24.2645L32.5452 24.3073L31.8391 24.6282L31.7535 24.671L31.7107 24.5854C31.3684 23.8579 31.133 22.7453 30.8976 21.547L30.8839 21.4792C30.3737 18.9486 29.7889 16.0479 27.8378 16.0479H27.3457C26.6824 16.0479 26.0618 16.7112 25.5911 17.5457C25.099 18.4016 24.7994 19.4501 24.7994 20.2418V22.0606C24.7994 22.2989 24.8363 22.5556 24.8758 22.8308C24.8788 22.8521 24.8819 22.8735 24.885 22.895C24.9278 23.1732 24.9706 23.4514 24.9706 23.7081C24.9706 24.1575 24.8422 24.4784 24.3715 24.4784C23.3058 24.4784 22.9195 18.7887 22.6838 15.3184L22.6811 15.2776C22.6527 14.9233 22.6291 14.5949 22.6078 14.2992C22.5648 13.702 22.5314 13.2386 22.4885 12.9667C22.3601 11.9825 22.1461 10.1209 22.0392 8.62308C22.0178 8.32387 21.9964 8.046 21.975 7.76816L21.975 7.76719C21.975 7.63296 21.9691 7.50458 21.9635 7.38205C21.9584 7.27019 21.9536 7.1632 21.9536 7.06109V6.88991C21.9536 5.92703 21.7824 4.79298 21.6112 3.70172L21.6112 3.70166C21.4614 2.73881 21.3116 1.77595 21.2903 0.941476V0.791693C21.2903 0.556331 21.3117 0.513535 21.3544 0.427952L21.3544 0.427944C21.3758 0.385149 21.4186 0.29956 21.4614 0.106985L21.4828 0L21.5898 0.0213975C23.7081 0.577726 23.6653 4.79298 23.6226 8.92264L23.6225 8.92588C23.6011 11.9632 23.5801 14.9572 24.4142 16.3261C24.9064 15.9837 25.4841 15.6414 26.1474 15.3632C26.8535 15.0637 27.6238 14.8711 28.5225 14.8711H28.6937C30.937 14.8711 31.6942 19.2041 32.228 22.2594L32.2456 22.3601C32.2587 22.434 32.2715 22.5067 32.2841 22.5784C32.3957 23.2123 32.4919 23.7581 32.588 24.2003L32.6094 24.2645ZM40.7831 17.1392C41.0827 16.6043 41.3181 16.0693 41.3181 15.9409V14.2506C40.5264 14.3575 39.3067 14.9567 38.6434 15.5772C38.515 15.6842 38.408 15.8126 38.3225 15.9409C38.2583 16.0479 38.2155 16.1549 38.2155 16.2619V16.2833C38.2155 16.5829 38.2797 17.0536 38.408 17.4601C38.5364 17.8239 38.7076 18.1449 38.943 18.1449H39.9272C40.1626 18.1449 40.4836 17.6527 40.7831 17.1392ZM45.3194 12.9239L45.191 12.9025C44.977 12.8597 44.8272 12.8169 44.656 12.7314C44.6448 12.7276 44.6337 12.7239 44.6226 12.7202C44.3783 12.6385 44.1443 12.5602 43.7146 12.5602H43.308C42.7761 15.0496 43.7252 18.9988 44.3881 21.7571L44.3993 21.8038C44.5063 22.2103 44.5918 22.5741 44.656 22.8522L44.6774 22.9164L44.6132 22.9592C44.5903 22.9764 44.5689 22.9921 44.5491 23.0066C44.4948 23.0464 44.452 23.0777 44.4207 23.109C44.2709 23.2374 44.1853 23.3016 43.8857 23.3016H43.7146C42.5716 23.3016 42.4964 21.2918 42.4328 19.5915L42.4307 19.5357C42.4093 18.8938 42.3879 18.2946 42.3023 17.8881C41.96 18.0379 41.5534 18.4444 41.1683 18.8296C41.1245 18.8715 41.0809 18.9136 41.0375 18.9555C40.5714 19.4055 40.1262 19.8352 39.7347 19.8352H38.7504C38.3011 19.8352 37.9801 19.4073 37.7447 18.8724C37.5308 18.3588 37.381 17.7383 37.2954 17.3318C37.0421 16.1709 37.351 15.7387 37.7701 15.1522L37.7875 15.1278C37.9159 14.9567 38.0443 14.7855 38.1727 14.5715C38.622 13.8226 40.0556 12.6244 41.4251 11.9825C41.6818 11.8541 41.96 11.7471 42.2168 11.6829C42.5163 11.5973 42.7945 11.5545 43.0512 11.5545H44.0355C44.4849 11.5545 44.7844 11.6615 44.977 11.8755C45.1696 12.0894 45.2766 12.389 45.298 12.7955L45.3194 12.9239ZM67.1891 23.9333L67.1873 23.9649C67.1851 23.9986 67.1826 24.0334 67.18 24.0694C67.1581 24.3772 67.1299 24.7744 67.1873 25.2915V25.3985H67.0803H65.7537H65.6467V25.2915C65.6467 24.895 65.5912 24.6235 65.536 24.354C65.5227 24.2889 65.5094 24.224 65.4969 24.1575C65.4916 24.132 65.4861 24.1064 65.4806 24.0805C65.3984 23.6932 65.3044 23.2507 65.3044 22.4885C65.3044 21.8894 65.283 21.3758 65.2616 20.8837C65.2402 20.3916 65.1974 19.9208 65.1332 19.3859C64.985 18.0948 64.3762 17.0549 63.866 16.1834L63.8494 16.1549C63.5712 15.6842 63.3144 15.2348 63.186 14.8497H63.0149C62.7581 15.7698 62.2446 17.2248 61.7738 18.53L61.7731 18.5321C61.6021 19.0022 61.4313 19.472 61.3031 19.8352C61.1105 20.413 60.9607 21.2475 60.8751 22.1675C60.8639 22.2466 60.8585 22.3375 60.8529 22.4341C60.8478 22.5206 60.8425 22.6115 60.8323 22.7025C60.7254 23.8365 60.704 25.0348 60.704 25.9548V25.9762V26.6182V26.7038L60.6184 26.7252L59.6341 26.9177L59.5485 26.9391L59.5057 26.8749C58.8772 25.7016 58.782 25.0822 58.6578 24.2735L58.6498 24.2217C58.5856 23.7509 58.5 23.1946 58.3075 22.4243C58.0935 21.5042 57.7298 20.2846 57.366 19.2147C57.3268 19.0842 57.2797 18.9536 57.2343 18.8279C57.2053 18.7476 57.1771 18.6693 57.152 18.5942C57.1199 18.4979 57.0825 18.407 57.045 18.316C57.0076 18.2251 56.9701 18.1342 56.9381 18.0379C56.4887 16.9252 55.0337 13.9724 53.8783 12.1536C53.6643 11.7899 53.4503 11.4903 53.2577 11.2336C53.1079 11.041 52.9582 10.8698 52.8298 10.7628C50.7115 12.2178 51.3748 15.1492 52.0595 17.9737C52.0863 18.0859 52.1132 18.1981 52.1401 18.31C52.4566 19.6272 52.7656 20.9133 52.7656 22.0178C52.7656 22.3046 52.7314 22.4205 52.6936 22.5488C52.6891 22.5641 52.6846 22.5795 52.68 22.5955C52.6716 22.629 52.66 22.6592 52.6476 22.6912C52.6284 22.7411 52.6074 22.7955 52.5944 22.8736L52.5516 23.0234L52.4232 22.9378C51.8027 22.5313 51.332 21.6326 50.9682 20.5413C50.9254 20.413 50.8826 20.2655 50.8398 20.1181C50.8184 20.0444 50.797 19.9707 50.7757 19.8994C50.4119 18.5514 50.2193 17.0108 50.2193 15.7698V13.951C50.2193 13.2877 50.5617 11.7899 50.9896 10.4632C51.439 9.11522 51.9953 7.91698 52.466 7.91698H52.6372C53.3516 7.91698 54.9739 11.4865 56.5517 14.9582L56.6385 15.1492C56.6908 15.264 56.7431 15.3787 56.7953 15.4932C57.9581 18.0445 59.0616 20.4656 59.6555 21.1619C59.6983 18.6584 60.5114 15.7056 61.7096 13.737C61.945 13.3305 62.2232 12.9667 62.4799 12.6672C62.7581 12.3462 63.0363 12.0894 63.3358 11.8969L63.4214 11.8327L63.4856 11.9397C64.1061 13.1379 64.5127 13.9724 64.8336 14.8497C65.176 15.7484 65.4755 16.6898 65.9035 18.1449C66.0357 18.5561 66.1376 18.9573 66.237 19.3485C66.2824 19.5271 66.3273 19.7036 66.3742 19.878C66.4321 20.0848 66.4868 20.2948 66.5421 20.5068C66.6297 20.8431 66.7186 21.1844 66.8236 21.5256C67.2456 22.9183 67.2306 23.1873 67.1891 23.9333ZM75.6392 17.4174C75.0615 18.0165 74.5694 18.7226 74.5694 19.2575H74.548V19.4501C74.548 19.8566 74.8047 20.5841 75.1471 21.2047C75.4895 21.8252 75.8532 22.3173 76.11 22.3173C77.137 22.3173 78.3567 20.9479 78.9558 19.5143C79.127 19.0863 79.2554 18.6584 79.2982 18.2732C79.341 17.8881 79.3196 17.5243 79.2126 17.2248C79.0414 16.7326 78.5707 16.3903 77.7576 16.3903H77.2654C76.9017 16.3903 76.217 16.8396 75.6392 17.4174ZM72.7292 25.5055V25.3771C72.7292 24.3929 72.8148 23.5798 72.9218 22.7667C73.0074 21.868 73.093 20.9479 73.093 19.7496V18.9793C73.093 16.6257 73.093 16.4973 74.0986 14.5715L74.1414 14.4859L74.227 14.5287C74.2528 14.539 74.3034 14.5605 74.3705 14.589C74.5819 14.6787 74.9566 14.8378 75.2327 14.9353C75.2969 14.9567 75.3611 14.9781 75.4039 14.9995C75.4467 15.0209 75.4681 15.0209 75.4895 15.0209C75.8746 15.0209 75.9602 14.8711 76.0458 14.7213C76.0576 14.7056 76.069 14.6899 76.0803 14.6744C76.1924 14.5202 76.2951 14.3789 76.6449 14.3789H77.4794C78.4637 14.3789 79.3624 14.7427 80.0043 15.3846C80.6462 16.0265 81.0527 16.9252 81.0527 17.9523V18.2946C81.0527 19.0007 80.368 20.4344 79.5335 21.6754C78.6991 22.9164 77.7148 24.0077 77.1584 24.0077H76.9873C75.8104 24.0077 75.1899 23.7723 74.8475 23.6226C74.8246 23.6127 74.8033 23.6034 74.7834 23.5948C74.6731 23.5468 74.6089 23.5188 74.5908 23.537C74.5382 23.572 74.5143 23.7077 74.4603 24.0146C74.4484 24.0822 74.435 24.1581 74.4196 24.2431C74.3768 24.564 74.3126 24.9706 74.2056 25.5269C74.0772 26.1902 73.9061 27.2815 73.7777 28.3299C73.7563 28.5439 73.7349 28.7365 73.7135 28.9291C73.6493 29.5496 73.6065 30.1059 73.6065 30.5125L73.6279 33.2085L74.3126 33.3583L74.441 33.3797L74.3768 33.5081L73.2855 35.6478L73.3497 35.6692L73.4995 35.7334L73.3711 35.8404L72.2371 36.8674L72.0659 37.0172V36.7819C72.0659 34.6849 72.2371 32.5666 72.4083 30.5125L72.4283 30.2778C72.5712 28.6072 72.7088 26.9977 72.7292 25.5055ZM143.475 19.4403L143.404 19.5571C142.976 20.2846 142.613 20.8623 142.484 21.0549C142.142 21.6326 141.799 22.2531 141.5 22.8736C141.2 23.5156 140.922 24.1575 140.687 24.8636C140.601 25.099 140.473 25.6767 140.344 26.3186C140.321 26.4231 140.298 26.5296 140.275 26.6373C140.013 27.8304 139.722 29.1607 139.467 29.357L139.339 29.464L139.296 29.3142C139.24 29.0698 139.167 28.908 139.092 28.7417C139.081 28.7187 139.071 28.6957 139.061 28.6723C138.911 28.3727 138.782 28.0732 138.782 27.4741C138.782 25.7948 139.194 24.6252 139.605 23.4587C139.623 23.4063 139.641 23.354 139.66 23.3016C139.895 22.6811 140.109 22.0606 140.28 21.3758C139.21 19.771 138.119 18.3802 136.942 16.9038L136.472 16.3261C135.894 15.5772 135.38 15.0637 134.76 14.4645C134.61 14.3362 134.46 14.1864 134.31 14.0366C134.203 13.9296 133.818 13.63 133.39 13.3091C132.684 12.7741 131.85 12.1322 131.85 11.9611V10.9768V10.8698H131.957C133.69 10.8698 135.915 13.5872 137.927 16.0479C139.146 17.5457 140.302 18.958 141.2 19.5999C141.825 19.1422 142.873 17.6731 143.521 16.766L143.575 16.6898L143.789 16.3903C143.923 16.223 144.057 15.9772 144.211 15.6938C144.254 15.6148 144.299 15.5328 144.346 15.4488L144.39 15.3662C144.939 14.3531 145.609 13.1142 146.421 13.0309H146.507H146.614V13.1165V13.951C146.614 14.2449 144.718 17.382 143.475 19.4403ZM159.666 21.9108C159.666 22.7239 159.431 23.5584 159.024 24.2003C158.618 24.8636 158.019 25.3129 157.206 25.2915H156.713C155.365 25.2915 153.44 24.4784 152.413 23.4514C152.22 23.2374 152.049 23.0234 151.92 22.8095C151.792 22.5741 151.728 22.3601 151.706 22.1247V22.1033V22.0392L151.771 22.0178L152.391 21.6326L152.434 21.6112L152.477 21.6326C152.755 21.7824 153.097 22.0178 153.461 22.2745C153.509 22.3066 153.556 22.3391 153.604 22.3717C154.357 22.8817 155.166 23.43 155.729 23.43H157.227C157.462 23.43 157.676 23.323 157.847 23.1304C158.019 22.9378 158.126 22.6597 158.126 22.3815V21.547C158.126 19.5904 156.413 17.7817 154.901 16.1841L154.873 16.1549C153.632 14.8497 152.52 13.6728 152.52 12.6244V11.9611C152.52 10.4517 153.407 9.97724 154.32 9.48851L154.338 9.47897C154.574 9.37199 154.809 9.24361 155.023 9.09383L155.044 9.07243H155.066L157.056 8.90125H157.077H157.398C158.168 8.90125 158.447 9.07243 158.874 9.37199L158.939 9.41478L158.981 9.43618V9.50037V11.4903V11.6829L158.832 11.5759C158.639 11.4475 158.361 11.1694 158.083 10.8698C157.612 10.3563 157.056 9.77853 156.735 9.77853H156.071C155.601 9.77853 155.044 10.1637 154.616 10.6772C154.188 11.1908 153.868 11.8327 153.868 12.3248C153.868 13.1905 154.826 14.202 155.962 15.4006L156.007 15.4488C157.676 17.182 159.666 19.2789 159.666 21.9108ZM172.376 14.7855C172.376 13.9938 172.098 13.3091 171.627 12.8383C171.157 12.3676 170.472 12.0894 169.616 12.068C169.038 12.068 168.204 12.8383 167.733 13.6086C167.647 13.7584 167.583 13.9082 167.519 14.058L167.519 14.0581C167.476 14.1864 167.433 14.3148 167.433 14.4431V14.4645C167.412 15.1065 167.583 15.7912 167.819 16.4117C168.054 17.0108 168.332 17.5671 168.546 17.9737C169.445 17.7597 171.007 17.1606 171.841 16.3903C172.012 16.2405 172.141 16.0693 172.226 15.9195C172.333 15.7698 172.376 15.5986 172.376 15.4488V14.7855ZM169.83 10.3991H170.322C171.05 10.3991 171.863 10.9982 172.462 11.7685C173.082 12.5602 173.532 13.5231 173.532 14.272V16.2619C173.532 17.5885 172.012 18.7654 170.622 19.4501C170.365 19.5785 170.087 19.7069 169.851 19.7924C169.802 19.8088 169.754 19.8252 169.708 19.8413C169.571 19.888 169.444 19.9318 169.316 19.9636L171.863 23.1518L171.905 23.216L171.863 23.2802L171.798 23.3872L171.793 23.3957C171.623 23.6719 171.43 23.9863 170.964 23.9863C170.258 23.9863 169.167 22.2959 168.589 21.3972C168.503 21.2475 168.418 21.1191 168.353 21.0335C167.754 20.1776 166.791 19.6855 165.807 19.1933C165.572 19.065 165.358 18.958 165.144 18.8511L165.144 18.851L165.058 18.7868L165.122 18.7012C165.759 17.7258 166.017 16.3931 166.271 15.0781L166.278 15.0423L166.279 15.0392C166.728 12.6652 167.156 10.3991 169.83 10.3991ZM175.629 4.10827L175.543 4.25805C175.201 4.87857 173.639 6.33358 172.483 7.08249C172.248 7.23227 172.034 7.36065 171.841 7.44624C171.627 7.55322 171.456 7.59602 171.328 7.59602H170.836H170.707L170.75 7.46763C170.832 7.11879 171.386 6.67154 171.922 6.23914L171.991 6.1838C172.312 5.94843 172.612 5.69166 172.783 5.49909C172.98 5.28347 173.118 5.09804 173.233 4.94278C173.255 4.91314 173.276 4.88461 173.296 4.85717C173.703 4.27944 173.831 4.10827 175.457 4.10827H175.629ZM186.263 15.834C186.349 15.6628 186.413 15.4916 186.413 15.3204H186.434V14.1222C186.434 13.8654 186.113 13.3519 185.814 12.9881C185.749 12.9025 185.685 12.8383 185.642 12.7955C185.6 12.7314 185.557 12.6886 185.514 12.6672C185.069 12.3284 184.688 12.262 184.203 12.1777L184.187 12.175C183.995 12.1536 183.781 12.1108 183.567 12.068L183.374 12.1964C182.39 12.8383 181.491 13.4375 181.491 15.1065C181.491 15.7762 181.839 16.4255 182.155 17.0142L182.176 17.0536L182.196 17.0897C182.381 17.4171 182.543 17.7053 182.625 17.9737C183.503 17.8667 185.043 17.2034 185.878 16.3475C186.028 16.1977 186.177 16.0051 186.263 15.834ZM187.611 14.2934C187.611 15.0423 187.59 15.8981 187.461 16.647C187.311 17.4174 187.055 18.0593 186.563 18.3588C186.22 18.5728 184.894 19.2575 184.016 19.6855C183.925 19.7313 183.833 19.771 183.748 19.8079C183.674 19.8398 183.605 19.8696 183.546 19.8994C183.513 19.9101 183.487 19.9208 183.46 19.9315C183.433 19.9422 183.406 19.9529 183.374 19.9636L185.921 23.1304L185.963 23.1946L185.921 23.2588L185.856 23.3444L185.843 23.3659C185.692 23.6025 185.462 23.9649 185.172 23.9649C184.594 23.9649 183.631 22.8309 182.989 21.9536C182.954 21.9037 182.916 21.8514 182.878 21.7992C182.801 21.6945 182.725 21.5899 182.668 21.5042C182.64 21.4641 182.612 21.427 182.587 21.3925C182.518 21.2986 182.464 21.2245 182.433 21.1619C181.776 20.1557 180.961 19.7407 180.008 19.2551C179.968 19.2346 179.927 19.2141 179.887 19.1933L179.202 18.851L179.095 18.8082L179.159 18.7012C180.184 17.185 180.229 16.6492 180.314 15.626L180.315 15.62C180.317 15.5862 180.32 15.552 180.323 15.5172C180.364 15.0235 180.413 14.4254 180.593 13.5658C180.785 12.5816 181.106 11.7899 181.684 11.2336C182.24 10.6772 183.053 10.3777 184.187 10.3777C185.043 10.3991 185.899 10.9554 186.541 11.7257C187.183 12.496 187.611 13.4589 187.611 14.2934ZM200 22.0819V22.5741C200 23.109 199.722 23.7509 199.358 24.2217C198.973 24.7138 198.502 25.099 198.096 25.099H196.277C195.1 25.099 193.517 24.2003 192.618 23.2374C192.447 23.0662 192.297 22.8736 192.169 22.6811C192.04 22.5099 191.955 22.3173 191.912 22.1461L191.89 22.0606L191.976 22.0178L192.768 21.6112L192.811 21.5898L192.853 21.6112C193.067 21.7396 193.517 22.0392 193.987 22.3815C194.084 22.4487 194.181 22.517 194.278 22.585C194.892 23.0151 195.484 23.43 195.614 23.43H196.769C197.261 23.43 197.689 23.4086 198.01 23.2588C198.31 23.1304 198.481 22.8523 198.481 22.3815V21.547C198.481 19.6249 196.925 17.9799 195.429 16.3993L195.421 16.3903C194.009 14.9139 192.682 13.5231 192.682 11.9611C192.682 11.1266 193.26 10.3563 194.052 9.79993C194.843 9.2436 195.849 8.90125 196.748 8.90125H197.411C197.86 8.90125 198.203 8.92265 198.481 9.00824C198.759 9.09383 198.994 9.22221 199.272 9.41478L199.315 9.43618V9.50037V11.4903V11.6829L199.165 11.5759C198.909 11.4047 198.652 11.148 198.395 10.8698C197.924 10.3349 197.39 9.77853 196.748 9.77853C196.17 9.77853 195.528 10.0995 195.036 10.5702C194.565 11.0196 194.223 11.6187 194.223 12.1536C194.223 13.2235 195.25 14.3147 196.427 15.5558C198.074 17.2676 200 19.2789 200 22.0819Z" fill="#040706"/>
</svg>
